<?xml version="1.0" encoding="utf-8"?>
<!-- Generator: Adobe Illustrator 16.0.0, SVG Export Plug-In . SVG Version: 6.00 Build 0)  -->
<!DOCTYPE svg PUBLIC "-//W3C//DTD SVG 1.1//EN" "http://www.w3.org/Graphics/SVG/1.1/DTD/svg11.dtd">
<svg version="1.1" id="Capa_1" xmlns="http://www.w3.org/2000/svg" xmlns:xlink="http://www.w3.org/1999/xlink" x="0px" y="0px"
	 width="322.667px" height="168px" viewBox="0 0 322.667 168" enable-background="new 0 0 322.667 168" xml:space="preserve">
<g>
	<path fill="#1E7FC3" d="M121.021,66.061c1.719,0.029,3.281,0.303,4.691,0.823c1.408,0.522,2.612,1.219,3.613,2.092
		c0.998,0.874,2.051,1.888,2.586,3.042c0.535,1.155,1.088,2.381,1.088,3.677v14.534c0,1.043-1.104,1.771-2.174,1.771h-4.775
		c-0.705,0-1.42-0.3-2.054-0.696c-0.635-0.393-0.997-1.06-0.997-1.792V76.117c0-0.479-0.173-0.923-0.608-1.331
		c-0.438-0.409-0.956-0.613-1.604-0.613c-0.592,0-0.914,0.204-1.337,0.613c-0.423,0.408-0.45,0.852-0.45,1.331v38.704
		c0,0.479,0.025,0.923,0.42,1.331c0.395,0.409,0.828,0.612,1.477,0.612c0.732,0,1.221-0.218,1.601-0.654
		c0.381-0.437,0.503-0.866,0.503-1.289v-13.353c0-0.732,0.342-1.389,0.976-1.784c0.635-0.394,1.328-0.685,2.034-0.685h4.773
		c1.099,0,2.217,0.694,2.217,1.709v14.535c0,1.324-0.566,2.57-1.129,3.739c-0.564,1.169-1.51,2.191-2.552,3.063
		c-1.043,0.874-2.353,1.564-3.788,2.07c-1.438,0.508-3.078,0.761-4.854,0.761c-1.719,0-3.293-0.253-4.687-0.761
		c-1.395-0.506-2.601-1.196-3.601-2.07c-1-0.872-1.91-1.895-2.444-3.063c-0.537-1.169-0.946-2.415-0.946-3.739v-39.55
		c0-1.323,0.419-2.57,0.982-3.739s1.422-2.189,2.436-3.064c1.014-0.873,2.28-1.563,3.73-2.069
		C117.599,66.313,119.248,66.061,121.021,66.061z"/>
	<path fill="#1E7FC3" d="M146,122.047c0,0.677-0.122,1.216-0.404,1.484c-0.282,0.268-0.729,0.469-1.376,0.469h-5.747
		c-0.647,0-1.439-0.201-1.723-0.469c-0.281-0.269-0.75-0.808-0.75-1.484V70.37c0-0.479,0.42-0.915,0.604-1.31
		s0.586-0.739,0.881-1.035c0.296-0.297,0.716-0.566,1.097-0.735s0.864-0.29,1.286-0.29h4.479c0.731,0,1.178,0.156,1.375,0.396
		c0.197,0.239,0.278,0.706,0.278,1.326V122.047z"/>
	<path fill="#1E7FC3" d="M173,122.089c0,0.647-0.159,1.174-0.426,1.442c-0.269,0.268-0.75,0.469-1.398,0.469h-4.31
		c-0.845,0-1.569-0.343-2.176-0.891c-0.606-0.551-0.979-1.268-1.119-2.084l-5.578-24.313l1.563,23.821
		c0.028,0.959-0.282,1.819-0.93,2.451c-0.648,0.635-1.451,1.016-2.408,1.016h-4.268c-0.648,0-1.195-0.201-1.461-0.469
		c-0.27-0.269-0.49-0.795-0.49-1.442V68.723c0-0.62,0.18-1.087,0.363-1.326c0.182-0.24,0.729-0.396,1.461-0.396h4.521
		c0.732,0,1.4,0.299,2.007,0.818c0.605,0.523,0.993,1.209,1.161,2.025l5.621,24.475l-1.563-23.953
		c-0.028-0.479,0.049-0.912,0.231-1.307c0.184-0.395,0.423-0.738,0.719-1.035c0.295-0.296,0.634-0.564,1.014-0.732
		c0.381-0.17,0.783-0.291,1.204-0.291h4.563c0.705,0,1.179,0.156,1.378,0.396c0.195,0.239,0.319,0.706,0.319,1.326V122.089z"/>
	<path fill="#1E7FC3" d="M193.402,67c0.563,0,0.896,0.186,1.221,0.48c0.322,0.295,0.377,0.764,0.377,1.326v1.395
		c0,1.465-0.236,2.668-0.926,3.498c-0.691,0.832-1.575,1.301-2.871,1.301H186v17h5.965c0.534,0,1.095,0.065,1.419,0.361
		S194,93.004,194,93.568v1.395c0,1.436-0.468,2.751-1.144,3.597c-0.678,0.845-1.794,1.44-3.089,1.44H186v16h5.203
		c1.296,0,2.18,0.432,2.871,1.248c0.689,0.818,0.926,1.996,0.926,3.488v1.395c0,0.564-0.055,1.063-0.377,1.357
		c-0.324,0.295-0.658,0.512-1.221,0.512h-14.536c-0.706,0-1.235-0.188-1.461-0.428c-0.226-0.238-0.405-0.75-0.405-1.398V68.807
		c0-0.647,0.18-1.135,0.405-1.391c0.226-0.252,0.742-0.416,1.419-0.416H193.402z"/>
	<path fill="#1E7FC3" d="M236,122.089c0,0.647-0.56,1.174-0.828,1.442c-0.269,0.268-1.152,0.469-1.8,0.469h-4.311
		c-0.845,0-1.569-0.343-2.175-0.891c-0.607-0.551-0.98-1.268-1.121-2.084l-5.577-24.313l1.563,23.821
		c0.027,0.959-0.282,1.819-0.93,2.451c-0.648,0.635-1.451,1.016-2.408,1.016h-4.268c-0.648,0-1.291-0.201-1.559-0.469
		c-0.27-0.269-0.588-0.795-0.588-1.442V68.723c0-0.62,0.277-1.087,0.461-1.326c0.184-0.24,0.826-0.396,1.559-0.396h4.521
		c0.731,0,1.4,0.299,2.007,0.818c0.606,0.523,0.993,1.209,1.161,2.025l5.621,24.475l-1.564-23.953
		c-0.028-0.479,0.049-0.912,0.233-1.307c0.183-0.395,0.421-0.738,0.718-1.035c0.296-0.296,0.635-0.564,1.015-0.732
		c0.38-0.17,0.781-0.291,1.204-0.291h4.563c0.705,0,1.583,0.156,1.78,0.396c0.195,0.239,0.722,0.706,0.722,1.326V122.089z"/>
	<path fill="#1E7FC3" d="M255.595,67c0.564,0,0.801,0.186,1.125,0.48c0.322,0.295,0.279,0.764,0.279,1.326v1.395
		c0,1.465-0.139,2.668-0.828,3.498C255.48,74.531,254.695,75,253.398,75H249v17h5.16c0.535,0,0.997,0.065,1.321,0.361
		S256,93.004,256,93.568v1.395c0,1.436-0.37,2.751-1.047,3.597c-0.677,0.845-1.695,1.44-2.99,1.44H249v16h4.398
		c1.297,0,2.082,0.432,2.773,1.248c0.689,0.818,0.828,1.996,0.828,3.488v1.395c0,0.564,0.043,1.063-0.279,1.357
		c-0.324,0.295-0.561,0.512-1.125,0.512H241.06c-0.704,0-1.332-0.188-1.559-0.428c-0.225-0.238-0.502-0.75-0.502-1.398V68.807
		c0-0.647,0.277-1.135,0.502-1.391c0.227-0.252,0.841-0.416,1.517-0.416H255.595z"/>
	<path fill="#1E7FC3" d="M279.765,67c0.534,0,0.682,0.186,1.02,0.48S281,68.244,281,68.807v1.395c0,1.493-0.061,2.702-0.766,3.519
		c-0.703,0.818-1.413,1.28-2.708,1.28H275v47.089c0,0.677,0.051,1.209-0.216,1.464c-0.268,0.253-0.541,0.447-1.188,0.447h-5.873
		c-0.647,0-1.094-0.194-1.348-0.447c-0.254-0.255-0.375-0.787-0.375-1.464V75h-2.502c-1.297,0-2.017-0.462-2.721-1.28
		c-0.704-0.816-0.777-2.025-0.777-3.519v-1.395c0-0.563-0.11-1.031,0.228-1.326c0.339-0.295,0.495-0.48,1.03-0.48H279.765z"/>
</g>
<g>
	<g>
		
			<path fill-rule="evenodd" clip-rule="evenodd" fill="#FFFFFF" stroke="#1E7FC3" stroke-width="2.175" stroke-linecap="round" stroke-linejoin="round" stroke-miterlimit="10" d="
			M52.193,65.166c1.922,0.542,2.839,0.134,4.047-1.791c6.615,2.553,13.236,5.107,19.879,7.67c-0.573,1.8-0.033,3.141,1.68,4.011
			c-5.317,13.778-10.637,27.566-15.969,41.384c-0.787-0.269-1.566-0.277-2.328,0.07c-0.752,0.344-1.254,0.926-1.56,1.73
			c-6.655-2.566-13.291-5.128-19.962-7.701c0.348-0.779,0.343-1.58-0.004-2.368c-0.342-0.782-0.948-1.296-1.755-1.611
			C41.546,92.761,46.865,78.975,52.193,65.166z"/>
		<path fill-rule="evenodd" clip-rule="evenodd" fill="#FFFFFF" stroke="#3FA9F5" stroke-width="0.2175" stroke-miterlimit="10" d="
			M68.312,78.18c0.035-0.077,0.051-0.181,0.111-0.227c0.061-0.047,0.166-0.035,0.251-0.049c-0.013,0.166,0.003,0.344-0.049,0.497
			c-0.031,0.091-0.171,0.146-0.261,0.214c-0.043-0.074-0.109-0.145-0.121-0.225c-0.009-0.063,0.047-0.138,0.074-0.208
			C68.316,78.182,68.315,78.182,68.312,78.18z"/>
		<path fill-rule="evenodd" clip-rule="evenodd" fill="#FFFFFF" stroke="#3FA9F5" stroke-width="0.2175" stroke-miterlimit="10" d="
			M68.578,77.23c0.178-0.078,0.285-0.123,0.392-0.17c0.025,0.108,0.101,0.239,0.064,0.317c-0.052,0.11-0.188,0.182-0.287,0.271
			C68.7,77.531,68.652,77.412,68.578,77.23z"/>
		
			<path fill-rule="evenodd" clip-rule="evenodd" fill="#1E7FC3" stroke="#1E7FC3" stroke-width="1.305" stroke-linejoin="round" stroke-miterlimit="10" d="
			M72.524,73.937c0.614,0.237,0.921,0.924,0.702,1.491l-13.225,34.275c-0.22,0.568-0.895,0.836-1.509,0.599l-15.371-5.931
			c-0.614-0.236-0.935-0.889-0.715-1.457l13.226-34.275c0.219-0.567,0.906-0.869,1.52-0.633L72.524,73.937z"/>
		
			<polygon fill-rule="evenodd" clip-rule="evenodd" fill="#FFFFFF" stroke="#3FA9F5" stroke-width="1.305" stroke-linecap="round" stroke-linejoin="round" stroke-miterlimit="10" points="
			49.314,107.105 49.956,107.141 50.187,106.541 50.37,107.168 51.02,107.206 50.484,107.557 50.652,108.18 50.136,107.768 
			49.582,108.111 49.813,107.512 		"/>
		
			<polygon fill-rule="evenodd" clip-rule="evenodd" fill="#FFFFFF" stroke="#3FA9F5" stroke-width="1.305" stroke-linecap="round" stroke-linejoin="round" stroke-miterlimit="10" points="
			62.269,73.531 62.91,73.565 63.142,72.966 63.325,73.594 63.975,73.632 63.439,73.982 63.607,74.604 63.091,74.193 62.536,74.536 
			62.767,73.937 		"/>
		
			<line fill="none" stroke="#1E7FC3" stroke-width="1.305" stroke-linecap="round" stroke-linejoin="round" stroke-miterlimit="10" x1="71.967" y1="71.96" x2="58.57" y2="66.791"/>
		
			<line fill="none" stroke="#1E7FC3" stroke-width="1.305" stroke-linecap="round" stroke-linejoin="round" stroke-miterlimit="10" x1="60.843" y1="113.287" x2="74.669" y2="77.453"/>
	</g>
	<g>
		<polyline fill="#1E7FC3" stroke="#1E7FC3" stroke-width="1.305" stroke-linejoin="round" stroke-miterlimit="10" points="
			88.839,74.9 91.235,73.072 90.344,75.941 		"/>
		<polyline fill="#1E7FC3" stroke="#1E7FC3" stroke-width="1.305" stroke-linejoin="round" stroke-miterlimit="10" points="
			86.423,73.231 88.821,71.402 87.929,74.271 		"/>
		<polyline fill="#1E7FC3" stroke="#1E7FC3" stroke-width="1.305" stroke-linejoin="round" stroke-miterlimit="10" points="
			83.857,71.458 86.255,69.629 85.363,72.498 		"/>
		<polyline fill="#1E7FC3" stroke="#1E7FC3" stroke-width="1.305" stroke-linejoin="round" stroke-miterlimit="10" points="
			81.443,69.789 83.839,67.96 82.949,70.83 		"/>
		<polyline fill="#1E7FC3" stroke="#1E7FC3" stroke-width="1.305" stroke-linejoin="round" stroke-miterlimit="10" points="
			79.103,68.173 81.501,66.344 80.609,69.212 		"/>
		<polyline fill="#1E7FC3" stroke="#1E7FC3" stroke-width="1.305" stroke-linejoin="round" stroke-miterlimit="10" points="
			76.689,66.502 79.085,64.674 78.195,67.543 		"/>
		<polyline fill="#1E7FC3" stroke="#1E7FC3" stroke-width="1.305" stroke-linejoin="round" stroke-miterlimit="10" points="
			74.124,64.729 76.52,62.9 75.628,65.771 		"/>
		<polyline fill="#1E7FC3" stroke="#1E7FC3" stroke-width="1.305" stroke-linejoin="round" stroke-miterlimit="10" points="
			71.708,63.061 74.105,61.231 73.214,64.102 		"/>
	</g>
	<g>
		<polyline fill="#1E7FC3" stroke="#1E7FC3" stroke-width="1.305" stroke-linejoin="round" stroke-miterlimit="10" points="
			40.195,110.883 38.308,113.234 38.484,110.234 		"/>
		<polyline fill="#1E7FC3" stroke="#1E7FC3" stroke-width="1.305" stroke-linejoin="round" stroke-miterlimit="10" points="
			42.941,111.922 41.054,114.273 41.229,111.274 		"/>
		<polyline fill="#1E7FC3" stroke="#1E7FC3" stroke-width="1.305" stroke-linejoin="round" stroke-miterlimit="10" points="
			45.858,113.026 43.97,115.378 44.146,112.379 		"/>
		<polyline fill="#1E7FC3" stroke="#1E7FC3" stroke-width="1.305" stroke-linejoin="round" stroke-miterlimit="10" points="
			48.603,114.065 46.715,116.417 46.892,113.418 		"/>
		<polyline fill="#1E7FC3" stroke="#1E7FC3" stroke-width="1.305" stroke-linejoin="round" stroke-miterlimit="10" points="
			51.262,115.072 49.376,117.424 49.551,114.425 		"/>
		<polyline fill="#1E7FC3" stroke="#1E7FC3" stroke-width="1.305" stroke-linejoin="round" stroke-miterlimit="10" points="
			54.007,116.111 52.121,118.464 52.296,115.464 		"/>
		<polyline fill="#1E7FC3" stroke="#1E7FC3" stroke-width="1.305" stroke-linejoin="round" stroke-miterlimit="10" points="
			56.925,117.217 55.038,119.568 55.213,116.568 		"/>
		<polyline fill="#1E7FC3" stroke="#1E7FC3" stroke-width="1.305" stroke-linejoin="round" stroke-miterlimit="10" points="
			59.67,118.256 57.783,120.607 57.958,117.608 		"/>
	</g>
	
		<path fill-rule="evenodd" clip-rule="evenodd" fill="#FFFFFF" stroke="#1E7FC3" stroke-width="2.175" stroke-linecap="round" stroke-linejoin="round" stroke-miterlimit="10" d="
		M67.384,63.467c1.836,1.053,2.885,0.867,4.623-0.801c6.15,4.328,12.305,8.656,18.479,13.002c-1.053,1.704-0.842,3.223,0.695,4.558
		c-9.012,12.808-18.029,25.626-27.066,38.47c-0.742-0.479-1.543-0.688-2.415-0.525c-0.862,0.16-1.526,0.629-2.049,1.379
		c-6.187-4.354-12.356-8.693-18.556-13.057c0.558-0.712,0.758-1.537,0.605-2.438c-0.152-0.891-0.644-1.576-1.392-2.107
		C49.333,89.119,58.352,76.305,67.384,63.467z"/>
	<path fill-rule="evenodd" clip-rule="evenodd" fill="#FFFFFF" d="M80.621,81.002c0.055-0.072,0.098-0.175,0.172-0.205
		c0.074-0.033,0.18,0.006,0.271,0.014c-0.057,0.168-0.086,0.355-0.18,0.499c-0.055,0.085-0.212,0.104-0.322,0.153
		c-0.024-0.088-0.075-0.178-0.066-0.262c0.006-0.068,0.084-0.131,0.129-0.195C80.624,81.004,80.623,81.003,80.621,81.002z"/>
	<path fill-rule="evenodd" clip-rule="evenodd" fill="#FFFFFF" d="M81.138,80.092c0.202-0.032,0.324-0.053,0.445-0.072
		c-0.002,0.117,0.042,0.271-0.016,0.342c-0.082,0.1-0.238,0.139-0.363,0.205C81.185,80.433,81.167,80.297,81.138,80.092z"/>
	<path fill-rule="evenodd" clip-rule="evenodd" fill="#1E7FC3" stroke="#1E7FC3" stroke-width="1.305" stroke-miterlimit="10" d="
		M86.044,77.718c0.57,0.401,0.682,1.228,0.277,1.802l-24.379,34.648c-0.404,0.574-1.194,0.714-1.765,0.313l-14.289-10.054
		c-0.57-0.401-0.706-1.192-0.302-1.766l24.379-34.649c0.404-0.574,1.219-0.748,1.789-0.348L86.044,77.718z"/>
	
		<polygon fill-rule="evenodd" clip-rule="evenodd" fill="#FFFFFF" stroke="#FFFFFF" stroke-width="1.305" stroke-miterlimit="10" points="
		63.1,88.545 65.305,89.26 66.666,87.383 66.721,89.738 68.953,90.473 66.763,91.2 66.772,93.521 65.357,91.612 63.105,92.295 
		64.464,90.42 	"/>
	
		<polygon fill-rule="evenodd" clip-rule="evenodd" fill="#FFFFFF" stroke="#FFFFFF" stroke-width="1.305" stroke-linecap="round" stroke-miterlimit="10" points="
		55.654,97.64 57.859,98.354 59.218,96.477 59.275,98.833 61.505,99.565 59.316,100.294 59.326,102.615 57.911,100.707 
		55.659,101.389 57.019,99.514 	"/>
	
		<polygon fill-rule="evenodd" clip-rule="evenodd" fill="#FFFFFF" stroke="#FFFFFF" stroke-width="1.305" stroke-miterlimit="10" points="
		70.324,79.723 72.529,80.437 73.89,78.561 73.945,80.916 76.176,81.648 73.987,82.377 73.996,84.699 72.582,82.789 70.33,83.473 
		71.689,81.597 	"/>
	
		<line fill="none" stroke="#1E7FC3" stroke-width="1.305" stroke-linecap="round" stroke-miterlimit="10" x1="43.953" y1="101.158" x2="67.39" y2="67.846"/>
	
		<line fill="none" stroke="#3FA9F5" stroke-width="1.74" stroke-miterlimit="10" x1="53.828" y1="107.632" x2="55.999" y2="104.547"/>
	<line fill="none" stroke="#3FA9F5" stroke-width="1.74" stroke-miterlimit="10" x1="76.125" y1="77.127" x2="78.295" y2="74.042"/>
	
		<line fill="none" stroke="#1E7FC3" stroke-width="1.305" stroke-linecap="round" stroke-miterlimit="10" x1="39.24" y1="105.613" x2="53.776" y2="67.565"/>
	
		<line fill="none" stroke="#1E7FC3" stroke-width="1.305" stroke-linecap="round" stroke-miterlimit="10" x1="57.843" y1="115.529" x2="45.39" y2="106.768"/>
	
		<line fill="none" stroke="#1E7FC3" stroke-width="1.305" stroke-linecap="round" stroke-miterlimit="10" x1="85.98" y1="75.541" x2="73.525" y2="66.779"/>
	
		<line fill="none" stroke="#1E7FC3" stroke-width="1.305" stroke-linecap="round" stroke-miterlimit="10" x1="63.91" y1="115.199" x2="87.347" y2="81.889"/>
</g>
</svg>
