<?xml version="1.0" encoding="utf-8"?>
<!-- Generator: Adobe Illustrator 16.0.0, SVG Export Plug-In . SVG Version: 6.00 Build 0)  -->
<!DOCTYPE svg PUBLIC "-//W3C//DTD SVG 1.1//EN" "http://www.w3.org/Graphics/SVG/1.1/DTD/svg11.dtd">
<svg version="1.1" id="Capa_1" xmlns="http://www.w3.org/2000/svg" xmlns:xlink="http://www.w3.org/1999/xlink" x="0px" y="0px"
	 width="128px" height="130px" viewBox="0 0 128 130" enable-background="new 0 0 128 130" xml:space="preserve">
<g>
	<g>
		
			<path fill-rule="evenodd" clip-rule="evenodd" fill="#FFFFFF" stroke="#4C7EBE" stroke-width="2.175" stroke-linecap="round" stroke-linejoin="round" stroke-miterlimit="10" d="
			M62.193,40.166c1.922,0.542,2.839,0.134,4.047-1.791c6.615,2.553,13.236,5.107,19.879,7.67c-0.573,1.8-0.033,3.141,1.68,4.011
			C82.481,63.834,77.162,77.622,71.83,91.439c-0.787-0.269-1.566-0.277-2.328,0.07c-0.752,0.344-1.254,0.926-1.56,1.73
			c-6.655-2.566-13.291-5.128-19.962-7.701c0.348-0.779,0.343-1.58-0.004-2.368c-0.342-0.782-0.948-1.296-1.755-1.611
			C51.546,67.761,56.865,53.975,62.193,40.166z"/>
		<path fill-rule="evenodd" clip-rule="evenodd" fill="#FFFFFF" stroke="#6BA6F1" stroke-width="0.2175" stroke-miterlimit="10" d="
			M78.312,53.18c0.035-0.077,0.051-0.181,0.111-0.227c0.061-0.047,0.166-0.035,0.251-0.049c-0.013,0.166,0.003,0.344-0.049,0.497
			c-0.031,0.091-0.171,0.146-0.261,0.214c-0.043-0.074-0.109-0.145-0.121-0.225c-0.009-0.063,0.047-0.138,0.074-0.208
			C78.316,53.182,78.315,53.182,78.312,53.18z"/>
		<path fill-rule="evenodd" clip-rule="evenodd" fill="#FFFFFF" stroke="#6BA6F1" stroke-width="0.2175" stroke-miterlimit="10" d="
			M78.578,52.23c0.178-0.078,0.285-0.123,0.392-0.17c0.025,0.108,0.101,0.239,0.064,0.317c-0.052,0.11-0.188,0.182-0.287,0.271
			C78.7,52.531,78.652,52.412,78.578,52.23z"/>
		
			<path fill-rule="evenodd" clip-rule="evenodd" fill="#4C7EBE" stroke="#4C7EBE" stroke-width="1.305" stroke-linejoin="round" stroke-miterlimit="10" d="
			M82.524,48.937c0.614,0.237,0.921,0.924,0.702,1.491L70.001,84.703c-0.22,0.568-0.895,0.836-1.509,0.599l-15.371-5.931
			c-0.614-0.236-0.935-0.889-0.715-1.457l13.226-34.275c0.219-0.567,0.906-0.869,1.52-0.633L82.524,48.937z"/>
		
			<polygon fill-rule="evenodd" clip-rule="evenodd" fill="#FFFFFF" stroke="#6BA6F1" stroke-width="1.305" stroke-linecap="round" stroke-linejoin="round" stroke-miterlimit="10" points="
			59.314,82.105 59.956,82.141 60.187,81.541 60.37,82.168 61.02,82.206 60.484,82.557 60.652,83.18 60.136,82.768 59.582,83.111 
			59.813,82.512 		"/>
		
			<polygon fill-rule="evenodd" clip-rule="evenodd" fill="#FFFFFF" stroke="#6BA6F1" stroke-width="1.305" stroke-linecap="round" stroke-linejoin="round" stroke-miterlimit="10" points="
			72.269,48.531 72.91,48.565 73.142,47.966 73.325,48.594 73.975,48.632 73.439,48.982 73.607,49.604 73.091,49.193 72.536,49.536 
			72.767,48.937 		"/>
		
			<line fill="none" stroke="#4C7EBE" stroke-width="1.305" stroke-linecap="round" stroke-linejoin="round" stroke-miterlimit="10" x1="81.967" y1="46.96" x2="68.57" y2="41.791"/>
		
			<line fill="none" stroke="#4C7EBE" stroke-width="1.305" stroke-linecap="round" stroke-linejoin="round" stroke-miterlimit="10" x1="70.843" y1="88.287" x2="84.669" y2="52.453"/>
	</g>
	<g>
		<polyline fill="#4C7EBE" stroke="#4C7EBE" stroke-width="1.305" stroke-linejoin="round" stroke-miterlimit="10" points="
			98.839,49.9 101.235,48.072 100.344,50.941 		"/>
		<polyline fill="#4C7EBE" stroke="#4C7EBE" stroke-width="1.305" stroke-linejoin="round" stroke-miterlimit="10" points="
			96.423,48.231 98.821,46.402 97.929,49.271 		"/>
		<polyline fill="#4C7EBE" stroke="#4C7EBE" stroke-width="1.305" stroke-linejoin="round" stroke-miterlimit="10" points="
			93.857,46.458 96.255,44.629 95.363,47.498 		"/>
		<polyline fill="#4C7EBE" stroke="#4C7EBE" stroke-width="1.305" stroke-linejoin="round" stroke-miterlimit="10" points="
			91.443,44.789 93.839,42.96 92.949,45.83 		"/>
		<polyline fill="#4C7EBE" stroke="#4C7EBE" stroke-width="1.305" stroke-linejoin="round" stroke-miterlimit="10" points="
			89.103,43.173 91.501,41.344 90.609,44.212 		"/>
		<polyline fill="#4C7EBE" stroke="#4C7EBE" stroke-width="1.305" stroke-linejoin="round" stroke-miterlimit="10" points="
			86.689,41.502 89.085,39.674 88.195,42.543 		"/>
		<polyline fill="#4C7EBE" stroke="#4C7EBE" stroke-width="1.305" stroke-linejoin="round" stroke-miterlimit="10" points="
			84.124,39.729 86.52,37.9 85.628,40.771 		"/>
		<polyline fill="#4C7EBE" stroke="#4C7EBE" stroke-width="1.305" stroke-linejoin="round" stroke-miterlimit="10" points="
			81.708,38.061 84.105,36.231 83.214,39.102 		"/>
	</g>
	<g>
		<polyline fill="#4C7EBE" stroke="#4C7EBE" stroke-width="1.305" stroke-linejoin="round" stroke-miterlimit="10" points="
			50.195,85.883 48.308,88.234 48.484,85.234 		"/>
		<polyline fill="#4C7EBE" stroke="#4C7EBE" stroke-width="1.305" stroke-linejoin="round" stroke-miterlimit="10" points="
			52.941,86.922 51.054,89.273 51.229,86.274 		"/>
		<polyline fill="#4C7EBE" stroke="#4C7EBE" stroke-width="1.305" stroke-linejoin="round" stroke-miterlimit="10" points="
			55.858,88.026 53.97,90.378 54.146,87.379 		"/>
		<polyline fill="#4C7EBE" stroke="#4C7EBE" stroke-width="1.305" stroke-linejoin="round" stroke-miterlimit="10" points="
			58.603,89.065 56.715,91.417 56.892,88.418 		"/>
		<polyline fill="#4C7EBE" stroke="#4C7EBE" stroke-width="1.305" stroke-linejoin="round" stroke-miterlimit="10" points="
			61.262,90.072 59.376,92.424 59.551,89.425 		"/>
		<polyline fill="#4C7EBE" stroke="#4C7EBE" stroke-width="1.305" stroke-linejoin="round" stroke-miterlimit="10" points="
			64.007,91.111 62.121,93.464 62.296,90.464 		"/>
		<polyline fill="#4C7EBE" stroke="#4C7EBE" stroke-width="1.305" stroke-linejoin="round" stroke-miterlimit="10" points="
			66.925,92.217 65.038,94.568 65.213,91.568 		"/>
		<polyline fill="#4C7EBE" stroke="#4C7EBE" stroke-width="1.305" stroke-linejoin="round" stroke-miterlimit="10" points="
			69.67,93.256 67.783,95.607 67.958,92.608 		"/>
	</g>
	
		<path fill-rule="evenodd" clip-rule="evenodd" fill="#FFFFFF" stroke="#4C7EBE" stroke-width="2.175" stroke-linecap="round" stroke-linejoin="round" stroke-miterlimit="10" d="
		M77.384,38.467c1.836,1.053,2.885,0.867,4.623-0.801c6.15,4.328,12.305,8.656,18.479,13.002c-1.053,1.704-0.842,3.223,0.695,4.558
		c-9.012,12.808-18.029,25.626-27.066,38.47c-0.742-0.479-1.543-0.688-2.415-0.525c-0.862,0.16-1.526,0.629-2.049,1.379
		c-6.187-4.354-12.356-8.693-18.556-13.057c0.558-0.712,0.758-1.537,0.605-2.438c-0.152-0.891-0.644-1.576-1.392-2.107
		C59.333,64.119,68.352,51.305,77.384,38.467z"/>
	<path fill-rule="evenodd" clip-rule="evenodd" fill="#FFFFFF" d="M90.621,56.002c0.055-0.072,0.098-0.175,0.172-0.205
		c0.074-0.033,0.18,0.006,0.271,0.014c-0.057,0.168-0.086,0.355-0.18,0.499c-0.055,0.085-0.212,0.104-0.322,0.153
		c-0.024-0.088-0.075-0.178-0.066-0.262c0.006-0.068,0.084-0.131,0.129-0.195C90.624,56.004,90.623,56.003,90.621,56.002z"/>
	<path fill-rule="evenodd" clip-rule="evenodd" fill="#FFFFFF" d="M91.138,55.092c0.202-0.032,0.324-0.053,0.445-0.072
		c-0.002,0.117,0.042,0.271-0.016,0.342c-0.082,0.1-0.238,0.139-0.363,0.205C91.185,55.433,91.167,55.297,91.138,55.092z"/>
	<path fill-rule="evenodd" clip-rule="evenodd" fill="#4C7EBE" stroke="#4C7EBE" stroke-width="1.305" stroke-miterlimit="10" d="
		M96.044,52.718c0.57,0.401,0.682,1.228,0.277,1.802L71.943,89.168c-0.404,0.574-1.194,0.714-1.765,0.313L55.889,79.427
		c-0.57-0.401-0.706-1.192-0.302-1.766l24.379-34.649c0.404-0.574,1.219-0.748,1.789-0.348L96.044,52.718z"/>
	
		<polygon fill-rule="evenodd" clip-rule="evenodd" fill="#FFFFFF" stroke="#FFFFFF" stroke-width="1.305" stroke-miterlimit="10" points="
		73.1,63.545 75.305,64.26 76.666,62.383 76.721,64.738 78.953,65.473 76.763,66.2 76.772,68.521 75.357,66.612 73.105,67.295 
		74.464,65.42 	"/>
	
		<polygon fill-rule="evenodd" clip-rule="evenodd" fill="#FFFFFF" stroke="#FFFFFF" stroke-width="1.305" stroke-linecap="round" stroke-miterlimit="10" points="
		65.654,72.64 67.859,73.354 69.218,71.477 69.275,73.833 71.505,74.565 69.316,75.294 69.326,77.615 67.911,75.707 65.659,76.389 
		67.019,74.514 	"/>
	
		<polygon fill-rule="evenodd" clip-rule="evenodd" fill="#FFFFFF" stroke="#FFFFFF" stroke-width="1.305" stroke-miterlimit="10" points="
		80.324,54.723 82.529,55.437 83.89,53.561 83.945,55.916 86.176,56.648 83.987,57.377 83.996,59.699 82.582,57.789 80.33,58.473 
		81.689,56.597 	"/>
	
		<line fill="none" stroke="#4C7EBE" stroke-width="1.305" stroke-linecap="round" stroke-miterlimit="10" x1="53.953" y1="76.158" x2="77.39" y2="42.846"/>
	<line fill="none" stroke="#6BA6F1" stroke-width="1.74" stroke-miterlimit="10" x1="63.828" y1="82.632" x2="65.999" y2="79.547"/>
	<line fill="none" stroke="#6BA6F1" stroke-width="1.74" stroke-miterlimit="10" x1="86.125" y1="52.127" x2="88.295" y2="49.042"/>
	
		<line fill="none" stroke="#4C7EBE" stroke-width="1.305" stroke-linecap="round" stroke-miterlimit="10" x1="49.24" y1="80.613" x2="63.776" y2="42.565"/>
	
		<line fill="none" stroke="#4C7EBE" stroke-width="1.305" stroke-linecap="round" stroke-miterlimit="10" x1="67.843" y1="90.529" x2="55.39" y2="81.768"/>
	
		<line fill="none" stroke="#4C7EBE" stroke-width="1.305" stroke-linecap="round" stroke-miterlimit="10" x1="95.98" y1="50.541" x2="83.525" y2="41.779"/>
	
		<line fill="none" stroke="#4C7EBE" stroke-width="1.305" stroke-linecap="round" stroke-miterlimit="10" x1="73.91" y1="90.199" x2="97.347" y2="56.889"/>
</g>
</svg>
